PathFileType	4	(X/Y/Z)	/Users/itak/Documents/Research/Walk-IL/dataset/trc/00555_00009.trc
DataRate	CameraRate	NumFrames	NumMarkers	Units	OrigDataRate	OrigDataStartFrame	OrigNumFrames
100.000000	100.000000	4	56	mm	100.000000	0	372
Frame#	Time	RPSI			LPSI			L3			STRN			T10			C7			CLAV			RBAK			LBAK			LSHO			LUPA			LAEL			LAOL			LWTS			LWPS			LFRA			LIFD			LHPS			LHTS			RSHO			RUPA			RAEL			RAOL			RWTS			RWPS			RFRA			RIFD			RHTS			RHPS			RBHD			LFHD			RFHD			LBHD			LHIP			RHIP			RASI			LASI			LKNE			LTHI			LANK			LTIP			LTOE			LMT1			LMT5			LHEE			RKNE			RTHI			RANK			RTIP			RTOE			RMT1			RMT5			RHEE			*53			*54			*55			
		X1	Y1	Z1	X2	Y2	Z2	X3	Y3	Z3	X4	Y4	Z4	X5	Y5	Z5	X6	Y6	Z6	X7	Y7	Z7	X8	Y8	Z8	X9	Y9	Z9	X10	Y10	Z10	X11	Y11	Z11	X12	Y12	Z12	X13	Y13	Z13	X14	Y14	Z14	X15	Y15	Z15	X16	Y16	Z16	X17	Y17	Z17	X18	Y18	Z18	X19	Y19	Z19	X20	Y20	Z20	X21	Y21	Z21	X22	Y22	Z22	X23	Y23	Z23	X24	Y24	Z24	X25	Y25	Z25	X26	Y26	Z26	X27	Y27	Z27	X28	Y28	Z28	X29	Y29	Z29	X30	Y30	Z30	X31	Y31	Z31	X32	Y32	Z32	X33	Y33	Z33	X34	Y34	Z34	X35	Y35	Z35	X36	Y36	Z36	X37	Y37	Z37	X38	Y38	Z38	X39	Y39	Z39	X40	Y40	Z40	X41	Y41	Z41	X42	Y42	Z42	X43	Y43	Z43	X44	Y44	Z44	X45	Y45	Z45	X46	Y46	Z46	X47	Y47	Z47	X48	Y48	Z48	X49	Y49	Z49	X50	Y50	Z50	X51	Y51	Z51	X52	Y52	Z52	X53	Y53	Z53	X54	Y54	Z54	X55	Y55	Z55	X56	Y56	Z56	

1	0	-1190.6962890625	1013.309387207031	108.5498352050781	-1155.274658203125	1016.787414550781	-18.99413871765137	-1166.225952148438	1105.603393554688	42.50246429443359	-938.7044067382812	1297.298950195312	82.10945129394531	-1174.96337890625	1231.977416992188	38.71114730834961	-1132.434204101562	1505.970458984375	59.33071899414062	-958.1498413085938	1408.421020507812	78.95310974121094	-1217.041381835938	1380.01904296875	128.6292114257812	-1151.410522460938	1453.722290039062	-34.47542572021484	-1043.239379882812	1484.4765625	-98.48542022705078	-1039.154663085938	1358.808471679688	-179.8613739013672	-1003.853332519531	1138.36328125	-194.8700866699219	-1100.89892578125	1127.619506835938	-169.0978851318359	-932.3258666992188	892.9061889648438	-124.8976821899414	-948.07421875	874.200439453125	-207.7205810546875	-978.3455810546875	1052.0302734375	-195.7029876708984	-875.9524536132812	762.7528076171875	-153.0731506347656	-938.1226196289062	814.5816650390625	-198.4255828857422	-910.0991821289062	816.7455444335938	-138.2572326660156	-1103.06689453125	1471.145263671875	218.8955078125	-1135.306030273438	1407.121215820312	281.7177734375	-1143.501098632812	1120.465087890625	331.6294555664062	-1195.43310546875	1102.889770507812	299.3439636230469	-1003.919555664062	902.2086181640625	309.2585754394531	-1055.958740234375	881.5842895507812	371.1017150878906	-1133.066040039062	1065.24755859375	339.9788513183594	-994.9216918945312	730.4029541015625	312.2395629882812	-974.9639282226562	811.0673217773438	328.621337890625	-1036.840087890625	807.3478393554688	372.3907470703125	-1056.541870117188	1689.229858398438	137.0718383789062	-876.0966796875	1701.537231445312	35.31683731079102	-920.3645629882812	1698.9697265625	172.7254028320312	-998.2604370117188	1690.35498046875	-17.4173469543457	-1000.089050292969	938.1680297851562	-116.0472183227539	-1099.110107421875	939.5823974609375	253.6665649414062	-999.51708984375	971.7359008789062	219.3558349609375	-935.9706420898438	965.02734375	-49.38200378417969	-990.177734375	493.7572937011719	-45.22635269165039	-981.0028686523438	659.377197265625	-83.86173248291016	-1093.436645507812	31.85898208618164	-50.6321907043457	-1063.572509765625	250.1053619384766	-59.75997924804688	-900.8609619140625	38.51431274414062	50.1670036315918	-978.5173950195312	40.10567855834961	69.89720916748047	-970.9757080078125	34.0847282409668	-38.82766342163086	-1173.2451171875	34.11141204833984	-12.55764102935791	-1039.609619140625	496.60986328125	226.1880340576172	-1054.89892578125	787.0342407226562	264.8454895019531	-1166.312866210938	36.20085144042969	201.0744781494141	-1046.885009765625	350.4385986328125	215.2423095703125	-940.9767456054688	38.82061386108398	197.2735900878906	-997.4884033203125	38.38476943969727	145.8952941894531	-1036.519287109375	37.55372619628906	241.5689544677734	-1211.163208007812	25.42916297912598	138.0349426269531	nan	nan	nan	nan	nan	nan	nan	nan	nan	
2	0.01	-1190.704833984375	1013.313049316406	108.5981063842773	-1155.279296875	1016.788513183594	-18.98782348632812	-1166.235473632812	1105.614990234375	42.53986740112305	-938.705322265625	1297.287475585938	82.114501953125	-1174.954833984375	1231.978271484375	38.75417327880859	-1132.425537109375	1505.966186523438	59.39017868041992	-958.1450805664062	1408.41064453125	78.96970367431641	-1217.017578125	1380.009643554688	128.6842956542969	-1151.412841796875	1453.729125976562	-34.42896270751953	-1043.255859375	1484.500732421875	-98.44393157958984	-1039.239379882812	1358.826416015625	-179.8261413574219	-1003.919738769531	1138.392578125	-194.9086303710938	-1100.946533203125	1127.650146484375	-169.0836334228516	-932.3207397460938	892.9275512695312	-124.9518585205078	-948.134521484375	874.2124633789062	-207.7859954833984	-978.4603271484375	1052.067626953125	-195.7818298339844	-875.5458374023438	762.9853515625	-153.27294921875	-938.1294555664062	814.5955200195312	-198.4564971923828	-910.01123046875	816.8348388671875	-138.4060974121094	-1103.029174804688	1471.119384765625	218.9549255371094	-1135.260620117188	1407.101440429688	281.777099609375	-1143.46728515625	1120.438720703125	331.6726989746094	-1195.396606445312	1102.872314453125	299.3753662109375	-1003.921508789062	902.143310546875	309.2656860351562	-1055.936401367188	881.5664672851562	371.1132202148438	-1133.044067382812	1065.23486328125	340.0146179199219	-994.9063110351562	730.361572265625	312.2435913085938	-974.9791870117188	811.0501708984375	328.6326904296875	-1036.866333007812	807.3182983398438	372.4762573242188	-1056.541015625	1689.216552734375	137.1275329589844	-876.033935546875	1701.577270507812	35.33476257324219	-920.3335571289062	1698.977172851562	172.7573547363281	-998.3030395507812	1690.368530273438	-17.35591506958008	-1000.17919921875	938.1555786132812	-116.0382385253906	-1098.9892578125	939.5772094726562	253.5828704833984	-999.5245971679688	971.7081298828125	219.3716278076172	-935.94140625	965.0781860351562	-49.46220397949219	-990.199951171875	493.7582092285156	-45.23333358764648	-981.0193481445312	659.3768310546875	-83.86798095703125	-1093.444580078125	31.86552619934082	-50.63265228271484	-1063.588989257812	250.1115570068359	-59.76894378662109	-900.8633422851562	38.51440811157227	50.15997695922852	-978.5542602539062	40.11827087402344	69.93167114257812	-970.9747924804688	34.08516311645508	-38.82899475097656	-1173.245849609375	34.11016464233398	-12.55551624298096	-1039.6025390625	496.6088562011719	226.1956329345703	-1054.884887695312	787.0260009765625	264.8760986328125	-1166.31201171875	36.19955444335938	201.0823822021484	-1046.873657226562	350.4371948242188	215.2395172119141	-940.9833374023438	38.82794952392578	197.2855987548828	-997.462890625	38.36882400512695	145.8880462646484	-1036.5224609375	37.56145095825195	241.5732116699219	-1211.263061523438	25.49044227600098	138.007568359375	nan	nan	nan	nan	nan	nan	nan	nan	nan	
3	0.02	-1190.716430664062	1013.318054199219	108.6574859619141	-1155.286376953125	1016.789245605469	-18.97959136962891	-1166.248779296875	1105.630004882812	42.59088134765625	-938.702392578125	1297.2744140625	82.11848449707031	-1174.945922851562	1231.981323242188	38.81049346923828	-1132.413940429688	1505.962890625	59.46664810180664	-958.1375122070312	1408.399047851562	78.98853302001953	-1216.987915039062	1379.998046875	128.7553100585938	-1151.415283203125	1453.739868164062	-34.36676788330078	-1043.276489257812	1484.531494140625	-98.39327239990234	-1039.328979492188	1358.850708007812	-179.7835388183594	-1003.993286132812	1138.428100585938	-194.9461975097656	-1101.00439453125	1127.686157226562	-169.0541534423828	-932.3099975585938	892.957763671875	-125.0045013427734	-948.1854248046875	874.2355346679688	-207.8472290039062	-978.5775146484375	1052.113525390625	-195.8607482910156	-875.24365234375	763.1629638671875	-153.4263458251953	-938.1340942382812	814.615966796875	-198.4889373779297	-909.940185546875	816.9171752929688	-138.5299987792969	-1102.979614257812	1471.086791992188	219.0307769775391	-1135.200317382812	1407.07470703125	281.850341796875	-1143.42236328125	1120.405029296875	331.724853515625	-1195.348388671875	1102.847290039062	299.4155578613281	-1003.91650390625	902.0645751953125	309.2699890136719	-1055.904174804688	881.539794921875	371.1221313476562	-1133.007568359375	1065.215454101562	340.0598449707031	-994.8814697265625	730.3109741210938	312.2496948242188	-975.0044555664062	811.0136108398438	328.6627502441406	-1036.880737304688	807.281982421875	372.5614624023438	-1056.536010742188	1689.19873046875	137.2052154541016	-875.9618530273438	1701.624389648438	35.36526489257812	-920.30615234375	1698.976928710938	172.8016662597656	-998.3463134765625	1690.386596679688	-17.27896118164062	-1000.293823242188	938.1408081054688	-116.0274429321289	-1098.856201171875	939.570068359375	253.4965515136719	-999.5221557617188	971.6810913085938	219.3860778808594	-935.8707275390625	965.1570434570312	-49.5787353515625	-990.2274780273438	493.760009765625	-45.24367141723633	-981.0402221679688	659.3783569335938	-83.87668609619141	-1093.450561523438	31.86993217468262	-50.63202285766602	-1063.607666015625	250.1189270019531	-59.77910232543945	-900.8648071289062	38.51472473144531	50.15397262573242	-978.606201171875	40.13567352294922	69.9820556640625	-970.9736328125	34.08577728271484	-38.8299560546875	-1173.247436523438	34.10881423950195	-12.55238819122314	-1039.59521484375	496.6070556640625	226.2017822265625	-1054.870361328125	787.015869140625	264.9115905761719	-1166.31201171875	36.19721984863281	201.0900115966797	-1046.862426757812	350.4353942871094	215.2361907958984	-940.9901733398438	38.83599090576172	197.2985382080078	-997.4405517578125	38.35514068603516	145.8807220458984	-1036.524047851562	37.56626129150391	241.573974609375	-1211.355712890625	25.54515647888184	137.98095703125	nan	nan	nan	nan	nan	nan	nan	nan	nan	
4	0.03	-1190.730712890625	1013.324523925781	108.7247161865234	-1155.29638671875	1016.789611816406	-18.96985054016113	-1166.265014648438	1105.648193359375	42.65381240844727	-938.69384765625	1297.260620117188	82.11997985839844	-1174.938110351562	1231.987670898438	38.87940216064453	-1132.400268554688	1505.961547851562	59.55874252319336	-958.1271362304688	1408.387329101562	79.00789642333984	-1216.95361328125	1379.984741210938	128.8399963378906	-1151.417114257812	1453.754638671875	-34.29072189331055	-1043.300537109375	1484.567504882812	-98.33606719970703	-1039.413818359375	1358.880859375	-179.7352600097656	-1004.066101074219	1138.468139648438	-194.9756164550781	-1101.068237304688	1127.723876953125	-169.0055084228516	-932.2913208007812	892.997802734375	-125.0442733764648	-948.2152709960938	874.27099609375	-207.8908843994141	-978.6815185546875	1052.165771484375	-195.9282073974609	-875.2340087890625	763.1771850585938	-153.4459838867188	-938.1298217773438	814.6424560546875	-198.5133819580078	-909.885986328125	816.9888916015625	-138.6046142578125	-1102.919311523438	1471.049072265625	219.1203918457031	-1135.125854492188	1407.041137695312	281.9349060058594	-1143.3671875	1120.365356445312	331.78271484375	-1195.28955078125	1102.814453125	299.4635314941406	-1003.901611328125	901.9765625	309.2693786621094	-1055.860961914062	881.50390625	371.1253662109375	-1132.9541015625	1065.188232421875	340.1125183105469	-994.8455810546875	730.2539672851562	312.2578735351562	-975.0374145507812	810.9493408203125	328.7166748046875	-1036.878662109375	807.240234375	372.6369323730469	-1056.52490234375	1689.177001953125	137.3054809570312	-875.8854370117188	1701.6748046875	35.40967559814453	-920.2850952148438	1698.966918945312	172.8565673828125	-998.383544921875	1690.408569335938	-17.18979835510254	-1000.425903320312	938.1259765625	-116.0167617797852	-1098.7265625	939.5614624023438	253.4207000732422	-999.5059814453125	971.6585083007812	219.3962707519531	-935.7457885742188	965.26416015625	-49.72978973388672	-990.2589111328125	493.7630920410156	-45.25801086425781	-981.0646362304688	659.3820190429688	-83.88788604736328	-1093.453247070312	31.87129974365234	-50.63064575195312	-1063.627685546875	250.1265411376953	-59.78957366943359	-900.864990234375	38.51528167724609	50.14993286132812	-978.6705932617188	40.15690612792969	70.04664611816406	-970.9723510742188	34.08660125732422	-38.83010482788086	-1173.249755859375	34.10682678222656	-12.54851245880127	-1039.58837890625	496.6044616699219	226.2054748535156	-1054.854370117188	787.0046997070312	264.9446105957031	-1166.3125	36.19355392456055	201.0963592529297	-1046.852905273438	350.4332580566406	215.2327575683594	-940.9963989257812	38.84443664550781	197.3112945556641	-997.4248657226562	38.34593200683594	145.8743133544922	-1036.523803710938	37.56725692749023	241.5706939697266	-1211.429565429688	25.58548927307129	137.9571990966797	nan	nan	nan	nan	nan	nan	nan	nan	nan	
